<svg id="Layer_1" data-name="Layer 1" xmlns="http://www.w3.org/2000/svg" viewBox="0 0 345 46"><title>tri-pac-logo</title><path d="M104.59,22.44h-8.8V16.57h24v5.87H111V45.5h-6.37Z" fill="#27251f"/><path d="M123.6,16.57h13.23c3.68,0,6.53,1,8.43,2.93a9.08,9.08,0,0,1,2.48,6.62v.08a9,9,0,0,1-6.2,9l7.07,10.33h-7.44L135,36.25h-5V45.5H123.6Zm12.82,14.05c3.1,0,4.87-1.65,4.87-4.09v-.08c0-2.73-1.9-4.13-5-4.13H130v8.3Z" fill="#27251f"/><path d="M152.74,16.57h6.37V45.5h-6.37Z" fill="#27251f"/><path d="M176.67,16.57H188.5c6.9,0,11.07,4.09,11.07,10v.09c0,6.69-5.2,10.16-11.69,10.16H183V45.5h-6.37Zm11.41,14.59c3.19,0,5-1.9,5-4.38V26.7c0-2.86-2-4.38-5.17-4.38H183v8.84Z" fill="#27251f"/><path d="M210.28,16.36h5.87l12.4,29.14h-6.66L219.25,39H207l-2.64,6.49h-6.49Zm6.69,17L213.13,24l-3.85,9.38Z" fill="#27251f"/><path d="M228.84,31.12V31a14.71,14.71,0,0,1,15.08-15c5.46,0,8.73,1.82,11.41,4.47l-4.05,4.67c-2.23-2-4.5-3.27-7.4-3.27-4.87,0-8.39,4-8.39,9V31c0,5,3.43,9.09,8.39,9.09,3.31,0,5.34-1.32,7.61-3.39l4,4.09A14.77,14.77,0,0,1,243.68,46,14.6,14.6,0,0,1,228.84,31.12Z" fill="#27251f"/><path d="M270.91,16.57h3.27V45.5h-3.27Z" fill="#27251f"/><path d="M281.62,16.57h3.06l18.23,23.19V16.57h3.18V45.5h-2.61L284.8,21.78V45.5h-3.18Z" fill="#27251f"/><path d="M312,31.12V31c0-8.19,6.11-15,14.63-15a15,15,0,0,1,11.28,4.59l-2.23,2.4a12.56,12.56,0,0,0-9.09-4c-6.41,0-11.2,5.21-11.2,11.86V31c0,6.69,4.83,11.94,11.2,11.94,4,0,6.57-1.53,9.34-4.17L338,40.92c-3,3-6.33,5.08-11.58,5.08C318.12,46,312,39.43,312,31.12Z" fill="#27251f"/><path d="M341.8,41.16h3.8V45.5h-3.8Z" fill="#27251f"/><path d="M66.6,8.73,79.76,23.09H53.44L66.6,8.73M66.6,0,40,29H93.17L66.6,0Z" fill="#fff"/><g opacity="0.25"><path d="M66.6,8.73,79.76,23.09H53.44L66.6,8.73M66.6,0,40,29H93.17L66.6,0Z" fill="#ac8a0b"/></g><path d="M54.14,8.73,74.91,31.39H33.37L54.14,8.73m0-8.73L20,37.29H88.32L54.14,0Z" fill="#fff"/><g opacity="0.5"><path d="M54.14,8.73,74.91,31.39H33.37L54.14,8.73m0-8.73L20,37.29H88.32L54.14,0Z" fill="#ac8a0b"/></g><path d="M41.71,8.73,70,39.6H13.41L41.71,8.73m0-8.73L0,45.5H83.42L41.71,0Z" fill="#ac8a0b"/></svg>