<svg id="Layer_1" data-name="Layer 1" xmlns="http://www.w3.org/2000/svg" viewBox="0 0 345 46"><title>tri-pac-logo-lumber-wrap</title><path d="M104.35,6.35H95.56V.49h23.92V6.35H110.7v23h-6.35Z" fill="#27251f"/><path d="M123.31.49h13.2c3.67,0,6.51,1,8.41,2.93A9.07,9.07,0,0,1,147.4,10v.08a9,9,0,0,1-6.19,9l7,10.31h-7.42l-6.19-9.24h-5v9.24h-6.35Zm12.79,14c3.09,0,4.86-1.64,4.86-4.08v-.08c0-2.72-1.89-4.12-5-4.12h-6.31v8.28Z" fill="#27251f"/><path d="M152.39.49h6.35V29.36h-6.35Z" fill="#27251f"/><path d="M176.26.49h11.79c6.89,0,11.06,4.09,11.06,10v.09c0,6.68-5.2,10.14-11.67,10.14h-4.83v8.66h-6.35Zm11.38,14.56c3.18,0,5-1.9,5-4.37V10.6c0-2.85-2-4.37-5.15-4.37h-4.91v8.82Z" fill="#27251f"/><path d="M209.78.29h5.86L228,29.36h-6.64l-2.64-6.47h-12.2l-2.64,6.47h-6.48Zm6.68,17-3.83-9.36-3.84,9.36Z" fill="#27251f"/><path d="M228.3,15v-.08A14.67,14.67,0,0,1,243.35,0c5.45,0,8.7,1.81,11.38,4.45l-4,4.66c-2.22-2-4.49-3.25-7.38-3.25-4.86,0-8.37,4-8.37,9v.09c0,4.95,3.42,9.07,8.37,9.07,3.3,0,5.32-1.32,7.59-3.38l4,4.08a14.74,14.74,0,0,1-11.83,5.15A14.57,14.57,0,0,1,228.3,15Z" fill="#27251f"/><path d="M270.28.49h3.26V29.36h-3.26Z" fill="#27251f"/><path d="M281,.49H284L302.2,23.63V.49h3.17V29.36h-2.6L284.13,5.69V29.36H281Z" fill="#27251f"/><path d="M311.23,15v-.08c0-8.17,6.1-14.93,14.59-14.93a15,15,0,0,1,11.26,4.58L334.86,7a12.57,12.57,0,0,0-9.08-4c-6.39,0-11.17,5.2-11.17,11.83v.09c0,6.68,4.82,11.91,11.17,11.91,4,0,6.56-1.52,9.32-4.16l2.15,2.1c-3,3-6.31,5.07-11.55,5.07C317.37,29.85,311.23,23.3,311.23,15Z" fill="#27251f"/><path d="M341,25h3.79v4.33H341Z" fill="#27251f"/><path d="M102.69,35.65h1.79v8.56h5.35v1.63h-7.14Z" fill="#78be20"/><path d="M111.24,41.52V35.65H113v5.79c0,1.9,1,2.91,2.58,2.91s2.56-1,2.56-2.83V35.65H120v5.78c0,3-1.71,4.57-4.38,4.57S111.24,44.47,111.24,41.52Z" fill="#78be20"/><path d="M122.42,35.65h1.91l3.1,4.82,3.1-4.82h1.91V45.84h-1.8V38.53l-3.21,4.81h-.06l-3.19-4.78v7.28h-1.76Z" fill="#78be20"/><path d="M135.05,35.65h4.57a3.69,3.69,0,0,1,2.67.9,2.29,2.29,0,0,1,.68,1.69v0a2.43,2.43,0,0,1-1.45,2.27,2.5,2.5,0,0,1,2,2.48v0c0,1.81-1.5,2.79-3.77,2.79h-4.72Zm4.21,4.29c1.15,0,1.92-.45,1.92-1.38v0c0-.8-.64-1.29-1.79-1.29h-2.57v2.7Zm.52,4.31c1.23,0,2-.48,2-1.39v0c0-.86-.68-1.37-2.1-1.37h-2.83v2.79Z" fill="#78be20"/><path d="M145.56,35.65h7.56v1.6h-5.77V39.9h5.11v1.6h-5.11v2.74h5.84v1.6h-7.63Z" fill="#78be20"/><path d="M155.31,35.65h4.54a4.08,4.08,0,0,1,2.94,1,3.07,3.07,0,0,1,.85,2.2v0A3.05,3.05,0,0,1,161.21,42L164,45.84h-2.11l-2.51-3.55H157.1v3.55h-1.79Zm4.41,5.05c1.28,0,2.1-.67,2.1-1.7v0c0-1.09-.79-1.69-2.11-1.69H157.1V40.7Z" fill="#78be20"/><path d="M169.42,35.65h1.93l2.43,7.56,2.51-7.59h1.51l2.5,7.59,2.43-7.56h1.88l-3.55,10.26h-1.54L177,38.59l-2.5,7.32H173Z" fill="#78be20"/><path d="M186.44,35.65H191a4.13,4.13,0,0,1,3,1,3.11,3.11,0,0,1,.84,2.2v0A3.05,3.05,0,0,1,192.34,42l2.75,3.86H193l-2.5-3.55h-2.25v3.55h-1.79Zm4.41,5.05c1.28,0,2.1-.67,2.1-1.7v0c0-1.09-.79-1.69-2.11-1.69h-2.61V40.7Z" fill="#78be20"/><path d="M200.58,35.58h1.65l4.49,10.26h-1.89l-1-2.46H199l-1,2.46h-1.84Zm2.56,6.21-1.76-4.07-1.75,4.07Z" fill="#78be20"/><path d="M208.46,35.65h4c2.37,0,3.87,1.35,3.87,3.41v0c0,2.28-1.83,3.47-4.07,3.47h-2v3.28h-1.79Zm3.88,5.3c1.35,0,2.19-.76,2.19-1.82v0c0-1.19-.86-1.82-2.19-1.82h-2.09V41Z" fill="#78be20"/><path d="M66.44,9.15,79.57,23.48H53.31L66.44,9.15m0-8.71L39.93,29.36H93L66.44.44Z" fill="#fff"/><g opacity="0.25"><path d="M66.44,9.15,79.57,23.48H53.31L66.44,9.15m0-8.71L39.93,29.36H93L66.44.44Z" fill="#78be20"/></g><path d="M54,9.15,74.74,31.76H33.29L54,9.15M54,.44,19.91,37.64H88.12L54,.44Z" fill="#fff"/><g opacity="0.5"><path d="M54,9.15,74.74,31.76H33.29L54,9.15M54,.44,19.91,37.64H88.12L54,.44Z" fill="#78be20"/></g><path d="M41.61,9.15,69.85,40H13.38L41.61,9.15m0-8.71L0,45.84H83.23L41.61.44Z" fill="#78be20"/></svg>