<svg id="Layer_1" data-name="Layer 1" xmlns="http://www.w3.org/2000/svg" viewBox="0 0 345 46"><title>tri-pac-logo-poly-products</title><path d="M104.31,6.35H95.53V.49h23.91V6.35h-8.78v23h-6.35Z" fill="#27251f"/><path d="M123.28.49h13.19c3.67,0,6.51,1,8.41,2.93a9.1,9.1,0,0,1,2.47,6.6v.08A9,9,0,0,1,141.17,19l7,10.31h-7.42l-6.18-9.23h-5v9.23h-6.34Zm12.77,14c3.1,0,4.87-1.65,4.87-4.08v-.08c0-2.72-1.9-4.13-5-4.13h-6.31v8.29Z" fill="#27251f"/><path d="M152.34.49h6.35V29.35h-6.35Z" fill="#27251f"/><path d="M176.21.49H188c6.89,0,11,4.09,11,10v.08c0,6.68-5.19,10.14-11.66,10.14h-4.83v8.66h-6.34Zm11.37,14.56c3.18,0,5-1.9,5-4.37v-.09c0-2.84-2-4.37-5.15-4.37h-4.91v8.83Z" fill="#27251f"/><path d="M209.72.29h5.85l12.37,29.06H221.3l-2.64-6.47h-12.2l-2.64,6.47h-6.47Zm6.67,17-3.83-9.36-3.83,9.36Z" fill="#27251f"/><path d="M228.23,15v-.08A14.66,14.66,0,0,1,243.28,0c5.44,0,8.69,1.81,11.37,4.45l-4,4.66c-2.22-2-4.49-3.26-7.38-3.26-4.86,0-8.36,4-8.36,9v.08c0,5,3.42,9.07,8.36,9.07,3.3,0,5.32-1.32,7.59-3.38l4,4.08A14.74,14.74,0,0,1,243,29.84,14.56,14.56,0,0,1,228.23,15Z" fill="#27251f"/><path d="M270.19.49h3.26V29.35h-3.26Z" fill="#27251f"/><path d="M280.87.49h3.05L302.1,23.62V.49h3.17V29.35h-2.59L284,5.69V29.35h-3.17Z" fill="#27251f"/><path d="M311.13,15v-.08c0-8.16,6.1-14.92,14.59-14.92A15,15,0,0,1,337,4.58L334.75,7a12.55,12.55,0,0,0-9.07-4c-6.39,0-11.17,5.19-11.17,11.83v.08c0,6.68,4.82,11.92,11.17,11.92,4,0,6.55-1.53,9.32-4.17l2.14,2.1c-3,3.05-6.31,5.07-11.54,5.07C317.27,29.84,311.13,23.29,311.13,15Z" fill="#27251f"/><path d="M340.89,25h3.79v4.33h-3.79Z" fill="#27251f"/><path d="M102.65,35.64h4c2.37,0,3.87,1.35,3.87,3.4v0c0,2.29-1.83,3.48-4.07,3.48h-2v3.28h-1.79Zm3.87,5.3c1.36,0,2.2-.76,2.2-1.82v0c0-1.2-.86-1.82-2.2-1.82h-2.08v3.67Z" fill="#00a9ce"/><path d="M111.92,40.76v0a5.33,5.33,0,0,1,10.65,0v0a5.33,5.33,0,0,1-10.65,0Zm8.78,0v0a3.49,3.49,0,0,0-3.47-3.62,3.44,3.44,0,0,0-3.43,3.59v0a3.49,3.49,0,0,0,3.46,3.63A3.45,3.45,0,0,0,120.7,40.76Z" fill="#00a9ce"/><path d="M124.74,35.64h1.79V44.2h5.35v1.63h-7.14Z" fill="#00a9ce"/><path d="M134.85,41.81l-4-6.17h2.11l2.85,4.51,2.88-4.51h2l-4,6.13v4.06h-1.81Z" fill="#00a9ce"/><path d="M146.64,35.64h4c2.38,0,3.87,1.35,3.87,3.4v0c0,2.29-1.83,3.48-4.07,3.48h-2v3.28h-1.79Zm3.87,5.3c1.35,0,2.2-.76,2.2-1.82v0c0-1.2-.86-1.82-2.2-1.82h-2.08v3.67Z" fill="#00a9ce"/><path d="M156.36,35.64h4.54a4.12,4.12,0,0,1,2.94,1,3.11,3.11,0,0,1,.84,2.2v0A3.06,3.06,0,0,1,162.25,42L165,45.83h-2.11l-2.5-3.56h-2.24v3.56h-1.79Zm4.41,5c1.28,0,2.09-.67,2.09-1.7v0c0-1.09-.78-1.69-2.11-1.69h-2.6v3.42Z" fill="#00a9ce"/><path d="M166.42,40.76v0a5.33,5.33,0,0,1,10.66,0v0a5.33,5.33,0,0,1-10.66,0Zm8.78,0v0a3.49,3.49,0,0,0-3.46-3.62,3.44,3.44,0,0,0-3.44,3.59v0a3.49,3.49,0,0,0,3.46,3.63A3.45,3.45,0,0,0,175.2,40.76Z" fill="#00a9ce"/><path d="M179.24,35.64H183a5.08,5.08,0,0,1,5.41,5.06v0a5.1,5.1,0,0,1-5.41,5.1h-3.8ZM183,44.2a3.33,3.33,0,0,0,3.54-3.44v0A3.34,3.34,0,0,0,183,37.27h-2V44.2Z" fill="#00a9ce"/><path d="M190.46,41.5V35.64h1.79v5.79c0,1.89,1,2.91,2.58,2.91s2.56-1,2.56-2.84V35.64h1.79v5.78c0,3-1.72,4.57-4.38,4.57S190.46,44.46,190.46,41.5Z" fill="#00a9ce"/><path d="M201.18,40.76v0a5.16,5.16,0,0,1,5.26-5.27,5.3,5.3,0,0,1,4,1.59l-1.15,1.33a4,4,0,0,0-2.85-1.27,3.42,3.42,0,0,0-3.36,3.59v0a3.45,3.45,0,0,0,3.36,3.63A4,4,0,0,0,209.35,43l1.15,1.17a5.29,5.29,0,0,1-4.14,1.8A5.12,5.12,0,0,1,201.18,40.76Z" fill="#00a9ce"/><path d="M214.87,37.3h-3.23V35.64h8.27V37.3h-3.23v8.53h-1.81Z" fill="#00a9ce"/><path d="M220.9,44.34,222,43.06a4.69,4.69,0,0,0,3.21,1.32c1.11,0,1.81-.5,1.81-1.28v0c0-.73-.41-1.13-2.3-1.56-2.17-.53-3.39-1.17-3.39-3v0c0-1.75,1.45-3,3.47-3a5.69,5.69,0,0,1,3.7,1.28l-1,1.36a4.59,4.59,0,0,0-2.76-1.05c-1,0-1.66.54-1.66,1.21v0c0,.78.46,1.13,2.41,1.6,2.16.52,3.28,1.29,3.28,3v0c0,1.91-1.5,3-3.64,3A6.27,6.27,0,0,1,220.9,44.34Z" fill="#00a9ce"/><path d="M66.42,9.15,79.55,23.47H53.29L66.42,9.15m0-8.71L39.92,29.35h53L66.42.44Z" fill="#fff"/><g opacity="0.25"><path d="M66.42,9.15,79.55,23.47H53.29L66.42,9.15m0-8.71L39.92,29.35h53L66.42.44Z" fill="#00a9ce"/></g><path d="M54,9.15l20.71,22.6H33.28L54,9.15M54,.44,19.91,37.63H88.09L54,.44Z" fill="#fff"/><g opacity="0.5"><path d="M54,9.15l20.71,22.6H33.28L54,9.15M54,.44,19.91,37.63H88.09L54,.44Z" fill="#00a9ce"/></g><path d="M41.6,9.15,69.83,39.94H13.37L41.6,9.15m0-8.71L0,45.83H83.2L41.6.44Z" fill="#00a9ce"/></svg>