<svg id="Layer_1" data-name="Layer 1" xmlns="http://www.w3.org/2000/svg" viewBox="0 0 345 46"><title>tri-pac-logo-heavy-duty</title><path d="M104.31,6.35H95.53V.49h23.91V6.35h-8.78v23h-6.35Z" fill="#27251f"/><path d="M123.28.49h13.19c3.67,0,6.51,1,8.41,2.93a9.06,9.06,0,0,1,2.47,6.6v.08a9,9,0,0,1-6.18,9l7.05,10.3H140.8l-6.19-9.23h-5v9.23h-6.35Zm12.78,14c3.09,0,4.86-1.65,4.86-4.08v-.08c0-2.72-1.89-4.12-5-4.12h-6.3v8.28Z" fill="#27251f"/><path d="M152.34.49h6.35V29.35h-6.35Z" fill="#27251f"/><path d="M176.21.49H188c6.88,0,11.05,4.09,11.05,10v.08c0,6.68-5.2,10.14-11.67,10.14h-4.82v8.66h-6.35Zm11.38,14.56c3.17,0,5-1.9,5-4.37v-.09c0-2.84-2-4.36-5.16-4.36h-4.9v8.82Z" fill="#27251f"/><path d="M209.72.29h5.86l12.36,29.06h-6.63l-2.64-6.47h-12.2l-2.64,6.47h-6.48Zm6.68,17-3.83-9.36-3.84,9.36Z" fill="#27251f"/><path d="M228.23,15v-.09A14.67,14.67,0,0,1,243.28,0c5.44,0,8.7,1.81,11.38,4.45l-4,4.66c-2.23-2-4.49-3.26-7.38-3.26-4.86,0-8.37,4-8.37,9v.08c0,5,3.42,9.07,8.37,9.07,3.3,0,5.32-1.32,7.58-3.38l4,4.08A15.21,15.21,0,0,1,228.23,15Z" fill="#27251f"/><path d="M270.2.49h3.26V29.35H270.2Z" fill="#27251f"/><path d="M280.88.49h3.05l18.18,23.13V.49h3.17V29.35h-2.6L284.05,5.69V29.35h-3.17Z" fill="#27251f"/><path d="M311.13,15v-.09c0-8.16,6.11-14.92,14.6-14.92A15,15,0,0,1,337,4.58L334.76,7c-2.44-2.31-5.16-4-9.07-4-6.39,0-11.17,5.19-11.17,11.83v.08c0,6.68,4.82,11.92,11.17,11.92,3.95,0,6.55-1.53,9.31-4.17l2.15,2.11c-3,3-6.31,5.07-11.55,5.07C317.28,29.85,311.13,23.29,311.13,15Z" fill="#27251f"/><path d="M340.9,25h3.79v4.33H340.9Z" fill="#27251f"/><path d="M102.66,35.64h1.79v4.23h4.86V35.64h1.79V45.83h-1.79v-4.3h-4.86v4.3h-1.79Z" fill="#ff8200"/><path d="M113.71,35.64h7.56v1.6H115.5v2.65h5.11v1.6H115.5v2.73h5.84v1.61h-7.63Z" fill="#ff8200"/><path d="M127.07,35.57h1.66l4.48,10.26h-1.89l-1-2.46h-4.82l-1,2.46h-1.83Zm2.56,6.21-1.76-4.07-1.75,4.07Z" fill="#ff8200"/><path d="M132.63,35.64h2l3.07,7.83,3-7.83h1.94L138.43,45.9h-1.57Z" fill="#ff8200"/><path d="M147.12,41.81l-4.05-6.17h2.11L148,40.15l2.88-4.51H153l-4.05,6.13v4.06h-1.8Z" fill="#ff8200"/><path d="M158.9,35.64h3.8a5.08,5.08,0,0,1,5.41,5.06v0a5.1,5.1,0,0,1-5.41,5.1h-3.8Zm3.8,8.56a3.32,3.32,0,0,0,3.54-3.44v0a3.34,3.34,0,0,0-3.54-3.46h-2V44.2Z" fill="#ff8200"/><path d="M170.12,41.5V35.64h1.79v5.79c0,1.89,1,2.91,2.58,2.91s2.56-1,2.56-2.84V35.64h1.79v5.78c0,3-1.72,4.57-4.38,4.57S170.12,44.46,170.12,41.5Z" fill="#ff8200"/><path d="M183.8,37.3h-3.23V35.64h8.26V37.3H185.6v8.53h-1.8Z" fill="#ff8200"/><path d="M193.72,41.81l-4-6.17h2.11l2.85,4.51,2.88-4.51h2l-4,6.13v4.06h-1.81Z" fill="#ff8200"/><path d="M205.5,35.64h4c2.37,0,3.87,1.35,3.87,3.41v0c0,2.29-1.83,3.48-4.07,3.48h-2v3.28h-1.8Zm3.88,5.3c1.35,0,2.19-.76,2.19-1.82v0c0-1.2-.86-1.82-2.19-1.82H207.3v3.67Z" fill="#ff8200"/><path d="M215.22,35.64h4.54a4.08,4.08,0,0,1,2.94,1,3.07,3.07,0,0,1,.85,2.2v0A3.06,3.06,0,0,1,221.12,42l2.75,3.86h-2.11l-2.5-3.56H217v3.56h-1.79Zm4.41,5c1.28,0,2.1-.67,2.1-1.7v0c0-1.09-.79-1.69-2.11-1.69H217v3.42Z" fill="#ff8200"/><path d="M225.29,40.76v0a5.33,5.33,0,0,1,10.65,0v0a5.33,5.33,0,0,1-10.65,0Zm8.78,0v0a3.49,3.49,0,0,0-3.47-3.62,3.44,3.44,0,0,0-3.43,3.59v0a3.49,3.49,0,0,0,3.46,3.63A3.45,3.45,0,0,0,234.07,40.76Z" fill="#ff8200"/><path d="M238.11,35.64h3.8a5.08,5.08,0,0,1,5.41,5.06v0a5.1,5.1,0,0,1-5.41,5.1h-3.8Zm3.8,8.56a3.32,3.32,0,0,0,3.54-3.44v0a3.34,3.34,0,0,0-3.54-3.46h-2V44.2Z" fill="#ff8200"/><path d="M249.33,41.5V35.64h1.79v5.79c0,1.89,1,2.91,2.57,2.91s2.57-1,2.57-2.84V35.64h1.79v5.78c0,3-1.72,4.57-4.38,4.57S249.33,44.46,249.33,41.5Z" fill="#ff8200"/><path d="M260.05,40.76v0a5.16,5.16,0,0,1,5.26-5.27,5.3,5.3,0,0,1,4,1.59l-1.15,1.33a4,4,0,0,0-2.85-1.27,3.42,3.42,0,0,0-3.36,3.59v0a3.45,3.45,0,0,0,3.36,3.63A4,4,0,0,0,268.22,43l1.14,1.17a5.26,5.26,0,0,1-4.13,1.8A5.12,5.12,0,0,1,260.05,40.76Z" fill="#ff8200"/><path d="M273.74,37.3h-3.23V35.64h8.27V37.3h-3.23v8.53h-1.81Z" fill="#ff8200"/><path d="M279.77,44.34l1.08-1.28a4.65,4.65,0,0,0,3.21,1.32c1.11,0,1.81-.5,1.81-1.28v0c0-.73-.41-1.13-2.3-1.56-2.17-.53-3.39-1.17-3.39-3v0c0-1.75,1.45-3,3.47-3a5.69,5.69,0,0,1,3.7,1.28l-1,1.36a4.59,4.59,0,0,0-2.76-1.05c-1.05,0-1.66.54-1.66,1.21v0c0,.78.46,1.13,2.41,1.6,2.16.52,3.28,1.29,3.28,3v0c0,1.91-1.5,3-3.64,3A6.27,6.27,0,0,1,279.77,44.34Z" fill="#ff8200"/><path d="M66.42,9.15,79.55,23.47H53.29L66.42,9.15m0-8.71L39.92,29.35h53L66.42.44Z" fill="#fff"/><g opacity="0.25"><path d="M66.42,9.15,79.55,23.47H53.29L66.42,9.15m0-8.71L39.92,29.35h53L66.42.44Z" fill="#ff8200"/></g><path d="M54,9.15l20.72,22.6H33.28L54,9.15M54,.44,19.91,37.63H88.09L54,.44Z" fill="#fff"/><g opacity="0.5"><path d="M54,9.15l20.72,22.6H33.28L54,9.15M54,.44,19.91,37.63H88.09L54,.44Z" fill="#ff8200"/></g><path d="M41.6,9.15,69.83,39.94H13.37L41.6,9.15m0-8.71L0,45.83H83.2L41.6.44Z" fill="#ff8200"/></svg>